<?xml version="1.0" encoding="UTF-8"?>
<svg xmlns="http://www.w3.org/2000/svg" xmlns:xlink="http://www.w3.org/1999/xlink" width="254px" height="270px" viewBox="0 0 254 270" version="1.1">
<g id="surface1">
<path style=" stroke:none;fill-rule:nonzero;fill:rgb(7.45098%,2.745098%,29.803922%);fill-opacity:1;" d="M 253.859375 191.523438 C 253.597656 194.152344 252.371094 196.277344 250.425781 198.011719 C 248.761719 199.492188 246.769531 200.335938 244.625 200.847656 C 243.101562 201.203125 241.5625 201.464844 240.007812 201.636719 L 239.855469 201.636719 C 238.6875 201.789062 238.59375 201.894531 238.59375 203.089844 C 238.59375 205.601562 238.59375 208.109375 238.59375 210.617188 C 238.59375 211.601562 238.554688 211.648438 237.601562 211.792969 C 235.675781 212.078125 233.753906 212.359375 231.832031 212.636719 C 231.757812 212.644531 231.679688 212.644531 231.605469 212.636719 C 231.519531 212.339844 231.496094 212.027344 231.539062 211.71875 C 231.539062 203.554688 231.539062 195.386719 231.539062 187.21875 C 231.539062 185.914062 231.539062 184.605469 231.539062 183.300781 C 231.539062 182.179688 231.800781 181.90625 232.90625 181.78125 C 236.1875 181.398438 239.457031 180.929688 242.730469 180.46875 C 244.40625 180.230469 246.078125 180.050781 247.773438 180.410156 C 251.253906 181.152344 253.570312 183.75 253.863281 187.300781 C 253.863281 187.472656 253.816406 187.667969 254.003906 187.792969 L 254.003906 190.882812 C 253.863281 191.066406 253.8125 191.300781 253.859375 191.523438 Z M 238.597656 191.453125 C 238.597656 192.578125 238.597656 193.695312 238.597656 194.828125 C 238.597656 195.453125 238.726562 195.566406 239.335938 195.46875 C 240.496094 195.273438 241.664062 195.113281 242.800781 194.828125 C 244.46875 194.402344 245.773438 193.480469 246.347656 191.765625 C 247.308594 188.882812 245.488281 186.621094 242.46875 186.992188 C 241.429688 187.121094 240.394531 187.285156 239.359375 187.449219 C 238.628906 187.5625 238.597656 187.613281 238.597656 188.316406 C 238.601562 189.363281 238.605469 190.40625 238.605469 191.453125 Z M 238.597656 191.453125 "/>
<path style=" stroke:none;fill-rule:nonzero;fill:rgb(47.45098%,16.862745%,92.941176%);fill-opacity:1;" d="M 253.859375 191.523438 C 253.808594 191.300781 253.859375 191.066406 253.992188 190.882812 L 253.992188 191.652344 Z M 253.859375 191.523438 "/>
<path style=" stroke:none;fill-rule:nonzero;fill:rgb(7.843137%,3.137255%,29.803922%);fill-opacity:1;" d="M 79.019531 51.414062 L 79.339844 51.363281 C 80.074219 51.488281 80.820312 51.515625 81.558594 51.441406 C 84.910156 51.332031 88.257812 51.167969 91.609375 51.070312 C 94.449219 50.988281 97.289062 50.886719 100.125 50.773438 C 103.21875 50.648438 106.316406 50.546875 109.421875 50.453125 C 111.722656 50.378906 114.027344 50.316406 116.328125 50.246094 C 116.480469 50.230469 116.628906 50.207031 116.777344 50.171875 C 117.804688 50.136719 118.828125 50.136719 119.851562 50.066406 C 122.894531 49.835938 125.957031 50.074219 128.929688 50.769531 C 132.886719 51.714844 136.230469 53.671875 138.8125 56.851562 C 139.375 57.550781 139.855469 58.308594 140.382812 59.03125 L 141.410156 61.273438 C 141.652344 60.738281 141.824219 60.367188 141.988281 59.992188 C 143.914062 55.402344 147.121094 51.460938 151.230469 48.644531 C 157.019531 44.683594 163.410156 43.292969 170.320312 44.457031 C 175.027344 45.25 179.160156 47.335938 182.824219 50.367188 C 183.050781 50.609375 183.324219 50.804688 183.625 50.949219 C 184.613281 52.019531 185.613281 53.082031 186.507812 54.25 C 188.664062 57.058594 190.234375 60.273438 191.132812 63.695312 C 191.152344 63.769531 191.183594 63.839844 191.207031 63.914062 C 191.441406 64.769531 191.433594 64.734375 192.28125 64.433594 C 194.042969 63.8125 195.808594 63.246094 197.589844 62.648438 L 211.304688 58.03125 C 211.601562 57.898438 211.921875 57.8125 212.246094 57.777344 C 212.34375 58.050781 212.320312 58.355469 212.175781 58.613281 C 209.878906 64.546875 207.582031 70.480469 205.289062 76.417969 C 201.65625 85.835938 198.03125 95.257812 194.40625 104.679688 C 194.277344 105 194.15625 105.351562 194.03125 105.6875 C 193.757812 106.175781 193.535156 106.691406 193.359375 107.226562 C 193.171875 107.882812 192.738281 108.160156 192.078125 108.222656 C 190.523438 108.359375 188.972656 108.542969 187.417969 108.703125 C 184.828125 108.988281 182.234375 109.289062 179.640625 109.570312 C 177.527344 109.800781 175.414062 110 173.304688 110.230469 C 170.710938 110.511719 168.117188 110.816406 165.523438 111.097656 C 163.359375 111.332031 161.191406 111.515625 159.035156 111.78125 C 158.433594 111.855469 157.796875 111.78125 157.222656 112.046875 C 155.820312 112.128906 154.417969 112.292969 153.03125 112.53125 C 152.488281 112.445312 151.960938 112.597656 151.429688 112.648438 C 149.160156 112.863281 146.890625 113.085938 144.625 113.320312 C 141.875 113.605469 139.128906 113.90625 136.378906 114.207031 C 134.242188 114.441406 132.105469 114.683594 129.96875 114.914062 C 129.128906 115.003906 128.289062 115.101562 127.441406 115.144531 C 126.542969 115.1875 126.4375 115.058594 126.429688 114.132812 C 126.429688 113.777344 126.429688 113.417969 126.429688 113.058594 C 126.429688 112.132812 126.109375 111.863281 125.199219 111.992188 C 123.222656 112.28125 121.242188 112.546875 119.273438 112.859375 C 118.378906 112.945312 117.496094 113.089844 116.625 113.292969 C 116.011719 113.300781 115.398438 113.375 114.800781 113.511719 C 112.554688 113.832031 110.3125 114.175781 108.046875 114.503906 C 105.746094 114.824219 103.441406 115.160156 101.136719 115.492188 L 93.167969 116.648438 C 90.792969 116.992188 88.414062 117.351562 86.035156 117.671875 C 85.046875 117.804688 84.070312 118.03125 83.070312 118.066406 C 82.304688 118.09375 82.109375 117.929688 82.03125 117.171875 C 82.015625 116.941406 82.015625 116.710938 82.03125 116.480469 C 82.054688 115.410156 82.109375 114.332031 82.105469 113.261719 C 82.105469 111.523438 82.058594 109.785156 82.035156 108.046875 C 82.015625 106.820312 82 105.589844 81.984375 104.363281 C 82.058594 102.933594 82.058594 101.503906 81.984375 100.074219 C 81.984375 99.871094 82.023438 99.667969 82.023438 99.464844 C 82.023438 93.851562 82.019531 88.238281 82.007812 82.621094 C 82.007812 82.492188 82.007812 82.367188 81.984375 82.242188 L 81.984375 78.222656 C 81.292969 78.230469 80.605469 78.304688 79.929688 78.453125 C 76.886719 78.878906 73.835938 79.332031 70.808594 79.777344 C 69.71875 79.9375 68.628906 80.09375 67.546875 80.277344 C 66.53125 80.503906 65.496094 80.03125 65 79.121094 C 64.132812 77.761719 63.265625 76.402344 62.390625 75.050781 L 49.09375 54.511719 C 48.804688 54.0625 48.527344 53.605469 48.160156 53.027344 C 50.773438 52.816406 53.289062 52.75 55.796875 52.605469 C 58.304688 52.457031 60.863281 52.355469 63.394531 52.230469 C 65.925781 52.101562 68.40625 51.960938 70.914062 51.832031 C 73.421875 51.703125 75.980469 51.585938 78.511719 51.460938 C 78.679688 51.511719 78.863281 51.496094 79.019531 51.414062 Z M 57.417969 57.816406 C 57.511719 58.152344 57.675781 58.46875 57.894531 58.742188 C 61.214844 63.84375 64.542969 68.949219 67.867188 74.054688 L 68.082031 74.375 C 68.300781 74.734375 68.707031 74.9375 69.125 74.898438 C 69.445312 74.871094 69.789062 74.84375 70.121094 74.796875 C 71.082031 74.667969 72.042969 74.53125 73.003906 74.394531 L 82.300781 73.074219 C 83.582031 72.894531 84.832031 72.6875 86.101562 72.527344 C 87.042969 72.410156 87.222656 72.59375 87.242188 73.558594 C 87.242188 73.738281 87.242188 73.917969 87.242188 74.097656 C 87.242188 77.042969 87.242188 79.988281 87.242188 82.933594 C 87.242188 92.355469 87.242188 101.78125 87.242188 111.203125 C 87.242188 112.484375 87.285156 112.484375 88.523438 112.304688 C 91.5625 111.84375 94.617188 111.402344 97.648438 110.957031 C 98.433594 110.839844 99.222656 110.753906 100.007812 110.636719 C 100.792969 110.515625 101.046875 110.222656 101.082031 109.40625 C 101.082031 109.203125 101.082031 108.996094 101.082031 108.792969 C 101.082031 106.871094 101.082031 104.949219 101.082031 103.03125 C 101.082031 95.832031 101.082031 88.636719 101.082031 81.445312 C 101.082031 78.164062 101.082031 74.886719 101.082031 71.609375 C 101.082031 70.519531 101.40625 70.097656 102.394531 69.972656 C 105.28125 69.605469 108.164062 69.144531 111.050781 68.726562 C 114.523438 68.222656 117.996094 67.722656 121.46875 67.234375 C 122.257812 67.121094 123.042969 67.007812 123.828125 66.914062 C 125.785156 66.683594 127.152344 68.296875 126.59375 70.175781 C 126.445312 70.636719 126.21875 71.070312 125.925781 71.457031 C 125.625 71.867188 125.316406 72.277344 125.007812 72.6875 C 119.007812 80.734375 113 88.777344 106.996094 96.820312 C 106.394531 97.59375 106.085938 98.550781 106.117188 99.527344 C 106.160156 101.832031 106.140625 104.136719 106.140625 106.441406 C 106.140625 107.210938 106.117188 107.976562 106.140625 108.746094 C 106.140625 109.273438 106.339844 109.425781 106.863281 109.414062 C 107.042969 109.398438 107.21875 109.375 107.394531 109.339844 L 116.449219 108.039062 C 119.1875 107.648438 121.925781 107.261719 124.664062 106.875 C 126.492188 106.621094 128.316406 106.371094 130.148438 106.152344 C 131.191406 106.027344 131.480469 106.304688 131.527344 107.367188 C 131.546875 107.800781 131.527344 108.238281 131.527344 108.671875 C 131.554688 109.28125 131.726562 109.433594 132.332031 109.433594 C 132.460938 109.429688 132.589844 109.421875 132.71875 109.410156 L 137.460938 108.90625 C 141.101562 108.519531 144.746094 108.132812 148.390625 107.746094 C 151.550781 107.429688 154.710938 107.109375 157.871094 106.769531 C 161.515625 106.382812 165.15625 105.984375 168.800781 105.601562 C 171.988281 105.28125 175.175781 104.960938 178.359375 104.617188 C 181.597656 104.296875 184.828125 103.90625 188.074219 103.617188 C 189.101562 103.527344 189.675781 103.125 190.050781 102.148438 C 191.933594 97.175781 193.867188 92.226562 195.785156 87.261719 C 198.433594 80.417969 201.085938 73.574219 203.742188 66.734375 C 203.808594 66.5625 203.890625 66.414062 203.722656 66.242188 C 203.554688 66.074219 203.429688 66.242188 203.289062 66.242188 C 203.191406 66.269531 203.09375 66.304688 203 66.347656 L 192.886719 69.726562 C 192.082031 69.996094 192.011719 70.082031 192.015625 70.933594 C 192.035156 72.238281 191.953125 73.546875 191.773438 74.839844 C 191.320312 77.621094 190.457031 80.316406 189.207031 82.84375 C 186.863281 87.804688 183.410156 91.703125 178.53125 94.285156 C 175.574219 95.828125 172.367188 96.839844 169.058594 97.269531 C 166.183594 97.699219 163.253906 97.628906 160.402344 97.058594 C 155.832031 96.128906 151.925781 93.886719 148.542969 90.683594 C 147.378906 89.566406 146.292969 88.371094 145.289062 87.101562 C 144.699219 86.371094 144.363281 86.28125 143.484375 86.582031 C 142.808594 86.816406 142.140625 87.078125 141.464844 87.300781 C 138.648438 88.238281 135.886719 89.320312 133.019531 90.113281 C 131.65625 90.488281 131.269531 91.160156 131.4375 92.582031 C 131.484375 92.988281 131.53125 93.398438 131.535156 93.804688 C 131.558594 95.101562 131.535156 95.082031 130.285156 95.277344 C 127.523438 95.671875 124.761719 96.09375 121.996094 96.476562 C 121.390625 96.558594 120.78125 96.753906 120.074219 96.660156 C 120.238281 96.421875 120.347656 96.253906 120.46875 96.09375 L 124.757812 90.28125 C 128.179688 85.648438 131.691406 81.078125 135.011719 76.375 C 135.824219 75.253906 136.492188 74.039062 137 72.753906 C 139.488281 66.304688 136.714844 59.644531 130.390625 56.84375 C 128.53125 56.035156 126.535156 55.578125 124.507812 55.503906 C 122.125 55.386719 119.742188 55.566406 117.359375 55.644531 C 113.902344 55.761719 110.445312 55.878906 106.984375 56 C 101.8125 56.1875 96.636719 56.375 91.464844 56.5625 C 87.9375 56.6875 84.394531 56.792969 80.859375 56.917969 C 74.148438 57.15625 67.4375 57.402344 60.722656 57.65625 C 59.640625 57.710938 58.546875 57.761719 57.417969 57.816406 Z M 147.671875 81.355469 C 148.238281 82.878906 148.363281 82.9375 149.8125 82.417969 L 176.441406 72.789062 C 176.679688 72.660156 176.949219 72.59375 177.21875 72.597656 C 177.121094 72.886719 177.046875 73.125 176.964844 73.355469 C 176.546875 74.480469 176.074219 75.59375 175.726562 76.738281 C 175.5 77.5625 174.851562 78.207031 174.023438 78.425781 C 167.839844 80.5 161.664062 82.589844 155.492188 84.703125 C 154.097656 85.175781 152.707031 85.664062 151.328125 86.144531 C 151.410156 86.402344 151.574219 86.625 151.792969 86.78125 C 152.601562 87.605469 153.492188 88.34375 154.449219 88.992188 C 161.179688 93.566406 170.183594 93.640625 177.15625 89.179688 C 184.1875 84.683594 188.054688 76.132812 186.820312 67.777344 C 185.984375 62.074219 183.375 57.355469 178.832031 53.808594 C 173.632812 49.746094 167.714844 48.222656 161.265625 49.78125 C 153.046875 51.769531 147.921875 57.109375 145.597656 65.144531 C 144.914062 67.394531 144.757812 69.765625 145.144531 72.082031 L 151.03125 68.710938 L 156.964844 65.320312 L 162.828125 61.964844 C 164.804688 60.832031 166.78125 59.695312 168.761719 58.574219 C 170.742188 57.453125 172.605469 56.332031 174.617188 55.253906 C 174.664062 55.488281 174.621094 55.730469 174.5 55.933594 C 173.957031 57.394531 173.375 58.84375 172.878906 60.320312 C 172.601562 61.207031 171.976562 61.9375 171.144531 62.355469 C 165.375 65.46875 159.621094 68.601562 153.878906 71.742188 C 151.429688 73.074219 148.96875 74.394531 146.503906 75.730469 C 145.628906 76.207031 145.484375 76.671875 145.898438 77.472656 C 146.128906 77.914062 146.28125 77.976562 146.675781 77.703125 C 146.96875 77.5 147.285156 77.328125 147.609375 77.183594 C 153.433594 74.53125 159.257812 71.902344 165.070312 69.234375 C 170.371094 66.800781 175.71875 64.46875 180.96875 61.933594 C 181.226562 61.75 181.566406 61.726562 181.84375 61.871094 C 181.816406 62.03125 181.789062 62.191406 181.757812 62.332031 C 181.472656 63.664062 180.851562 64.894531 180.523438 66.199219 C 180.355469 66.984375 179.792969 67.625 179.039062 67.894531 C 171.109375 71.273438 163.183594 74.667969 155.265625 78.074219 C 152.746094 79.160156 150.234375 80.25 147.671875 81.355469 Z M 147.671875 81.355469 "/>
<path style=" stroke:none;fill-rule:nonzero;fill:rgb(99.607843%,18.823529%,32.941176%);fill-opacity:1;" d="M 116.628906 113.285156 C 117.5 113.085938 118.382812 112.941406 119.273438 112.855469 C 121.246094 112.535156 123.226562 112.273438 125.203125 111.988281 C 126.101562 111.855469 126.417969 112.128906 126.433594 113.050781 C 126.433594 113.410156 126.433594 113.769531 126.433594 114.128906 C 126.433594 115.054688 126.546875 115.179688 127.445312 115.136719 C 128.289062 115.09375 129.128906 115 129.972656 114.910156 C 132.109375 114.679688 134.246094 114.433594 136.382812 114.203125 C 139.128906 113.902344 141.878906 113.601562 144.628906 113.316406 C 146.898438 113.082031 149.164062 112.855469 151.433594 112.644531 C 151.964844 112.589844 152.488281 112.4375 153.035156 112.523438 C 156.769531 117.078125 160.503906 121.632812 164.238281 126.1875 C 167.753906 130.457031 171.28125 134.714844 174.816406 138.96875 C 175.152344 139.347656 175.449219 139.757812 175.707031 140.195312 C 174.9375 140.386719 174.15625 140.523438 173.371094 140.613281 C 169.980469 141.125 166.585938 141.625 163.191406 142.117188 C 159.824219 142.601562 156.460938 143.078125 153.082031 143.558594 C 150.070312 143.988281 147.054688 144.4375 144.039062 144.871094 C 141.023438 145.308594 138.007812 145.730469 134.996094 146.152344 L 125.953125 147.460938 L 117.949219 148.628906 L 109.890625 149.789062 C 108.777344 149.949219 107.648438 150.109375 106.546875 150.265625 C 105.867188 150.355469 105.710938 150.179688 105.90625 149.480469 C 106.507812 147.394531 107.132812 145.320312 107.753906 143.230469 C 110.597656 133.714844 113.433594 124.203125 116.265625 114.695312 C 116.375 114.328125 116.449219 113.953125 116.539062 113.578125 Z M 116.628906 113.285156 "/>
<path style=" stroke:none;fill-rule:nonzero;fill:rgb(99.607843%,18.823529%,32.941176%);fill-opacity:1;" d="M 116.773438 50.171875 C 116.625 50.203125 116.476562 50.226562 116.324219 50.242188 C 114.023438 50.3125 111.71875 50.371094 109.417969 50.449219 C 106.320312 50.550781 103.226562 50.648438 100.121094 50.769531 C 97.285156 50.882812 94.445312 50.984375 91.605469 51.066406 C 88.253906 51.164062 84.90625 51.328125 81.554688 51.4375 C 80.816406 51.511719 80.070312 51.484375 79.339844 51.363281 C 79.25 51.148438 79.019531 51.117188 78.851562 51.042969 C 73.527344 48.351562 68.203125 45.667969 62.875 42.984375 C 62.488281 42.789062 62.078125 42.636719 61.691406 42.433594 C 61.308594 42.230469 61.234375 42.003906 61.5625 41.660156 C 61.78125 41.445312 62.011719 41.242188 62.253906 41.054688 L 94.226562 14.558594 C 94.742188 14.132812 95.242188 13.695312 95.753906 13.277344 C 96.671875 12.496094 96.933594 12.535156 97.484375 13.597656 C 99.5625 17.535156 101.636719 21.476562 103.707031 25.417969 C 107.839844 33.25 111.976562 41.082031 116.117188 48.910156 C 116.265625 49.261719 116.472656 49.585938 116.726562 49.871094 Z M 116.773438 50.171875 "/>
<path style=" stroke:none;fill-rule:nonzero;fill:rgb(47.45098%,16.862745%,92.941176%);fill-opacity:1;" d="M 116.773438 50.171875 L 116.71875 49.851562 C 116.714844 48.160156 116.609375 46.476562 116.398438 44.800781 C 116.179688 42.507812 115.925781 40.222656 115.691406 37.929688 C 115.449219 35.582031 115.210938 33.242188 114.976562 30.90625 L 114.308594 24.339844 C 114.070312 21.972656 113.828125 19.605469 113.589844 17.238281 C 113.359375 14.972656 113.144531 12.707031 112.921875 10.441406 C 112.6875 8.101562 112.429688 5.761719 112.21875 3.417969 C 112.121094 2.328125 111.917969 1.242188 111.984375 0.0078125 L 130.550781 8.777344 C 130.488281 9.042969 130.277344 9.113281 130.125 9.222656 C 126.421875 11.972656 122.730469 14.734375 119.003906 17.449219 C 118.21875 18.023438 117.867188 18.652344 117.957031 19.648438 C 118.25 22.882812 118.476562 26.121094 118.71875 29.363281 C 118.898438 31.710938 119.039062 34.058594 119.238281 36.40625 C 119.484375 39.441406 119.621094 42.488281 120.003906 45.503906 C 120.011719 45.609375 120.050781 45.714844 120.117188 45.796875 C 120.171875 45.070312 120.257812 44.34375 120.28125 43.617188 C 120.363281 40.625 120.429688 37.632812 120.5 34.636719 C 120.597656 30.363281 120.710938 26.089844 120.785156 21.832031 C 120.75 20.769531 121.28125 19.769531 122.175781 19.195312 C 124.8125 17.335938 127.386719 15.390625 129.988281 13.476562 C 130.207031 13.3125 130.4375 13.15625 130.789062 12.921875 L 131.683594 47.707031 C 132.003906 47.601562 131.945312 47.363281 131.96875 47.175781 C 132.453125 42.957031 132.929688 38.738281 133.410156 34.523438 C 133.945312 29.902344 134.5 25.277344 135.039062 20.65625 C 135.359375 17.808594 135.679688 14.964844 136 12.117188 C 136.074219 11.476562 136.246094 11.382812 136.847656 11.667969 C 139.839844 13.105469 142.839844 14.546875 145.847656 15.988281 C 146.851562 16.472656 147.0625 16.863281 146.890625 18.015625 C 146.683594 19.382812 146.449219 20.746094 146.230469 22.105469 C 145.6875 25.488281 145.148438 28.871094 144.609375 32.257812 C 144.011719 36.042969 143.414062 39.832031 142.820312 43.625 C 142.605469 45.011719 142.375 46.402344 142.179688 47.785156 C 142.15625 48.117188 142.15625 48.449219 142.179688 48.78125 C 141.746094 49.742188 141.726562 50.804688 141.539062 51.824219 C 141.132812 54.230469 140.761719 56.628906 140.375 59.042969 C 139.847656 58.320312 139.371094 57.5625 138.800781 56.863281 C 136.222656 53.664062 132.875 51.714844 128.921875 50.78125 C 125.949219 50.085938 122.886719 49.847656 119.84375 50.078125 C 118.824219 50.136719 117.796875 50.136719 116.773438 50.171875 Z M 116.773438 50.171875 "/>
<path style=" stroke:none;fill-rule:nonzero;fill:rgb(99.607843%,19.215686%,32.941176%);fill-opacity:1;" d="M 140.386719 59.039062 C 140.769531 56.628906 141.140625 54.234375 141.554688 51.820312 C 141.726562 50.796875 141.75 49.742188 142.195312 48.773438 C 142.609375 48.226562 142.984375 47.644531 143.316406 47.039062 C 148.195312 39.144531 153.027344 31.210938 157.8125 23.246094 C 157.90625 23.089844 158 22.925781 158.09375 22.789062 C 158.578125 22.015625 158.835938 21.925781 159.664062 22.320312 C 162.226562 23.53125 164.792969 24.761719 167.355469 25.980469 L 199.464844 41.1875 C 199.8125 41.351562 200.148438 41.53125 200.464844 41.691406 C 200.488281 41.988281 200.265625 42.011719 200.121094 42.085938 C 194.628906 45.046875 189.132812 48.011719 183.632812 50.96875 C 183.332031 50.824219 183.0625 50.625 182.832031 50.386719 C 179.164062 47.355469 175.035156 45.261719 170.332031 44.476562 C 163.421875 43.308594 157.027344 44.703125 151.238281 48.664062 C 147.128906 51.480469 143.917969 55.421875 141.988281 60.015625 C 141.824219 60.390625 141.667969 60.761719 141.410156 61.292969 Z M 140.386719 59.039062 "/>
<path style=" stroke:none;fill-rule:nonzero;fill:rgb(46.666667%,16.862745%,92.941176%);fill-opacity:1;" d="M 116.628906 113.285156 L 116.539062 113.582031 C 115.378906 114.949219 114.207031 116.304688 113.066406 117.683594 C 109.765625 121.667969 106.410156 125.609375 103.179688 129.648438 C 102.753906 130.238281 102.039062 130.550781 101.316406 130.457031 C 97.148438 130.136719 92.980469 129.816406 88.8125 129.53125 C 85.210938 129.273438 81.609375 129.015625 78.003906 128.765625 C 74.195312 128.5 70.386719 128.25 66.582031 127.984375 C 62.949219 127.738281 59.316406 127.484375 55.683594 127.230469 C 54.949219 127.179688 54.21875 127.105469 53.492188 127.046875 C 53.492188 126.777344 53.683594 126.726562 53.8125 126.621094 C 63.148438 119.226562 72.488281 111.832031 81.828125 104.4375 C 81.871094 104.410156 81.914062 104.386719 81.960938 104.363281 C 81.976562 105.589844 81.992188 106.820312 82.007812 108.046875 C 82.035156 109.785156 82.074219 111.523438 82.078125 113.261719 C 82.078125 114.332031 82.03125 115.410156 82.003906 116.480469 C 81.992188 116.710938 81.992188 116.941406 82.003906 117.171875 C 82.085938 117.925781 82.277344 118.089844 83.042969 118.066406 C 84.042969 118.03125 85.019531 117.804688 86.007812 117.671875 C 88.390625 117.351562 90.765625 116.992188 93.144531 116.648438 L 101.113281 115.492188 C 103.414062 115.171875 105.71875 114.851562 108.019531 114.503906 C 110.265625 114.183594 112.507812 113.828125 114.773438 113.511719 C 115.382812 113.371094 116.003906 113.296875 116.628906 113.285156 Z M 116.628906 113.285156 "/>
<path style=" stroke:none;fill-rule:nonzero;fill:rgb(7.843137%,3.137255%,29.803922%);fill-opacity:1;" d="M 13.046875 232.414062 C 13.324219 231.28125 13.574219 230.265625 13.820312 229.25 C 15.058594 224.105469 16.296875 218.960938 17.535156 213.8125 C 17.769531 212.820312 17.984375 212.625 19.035156 212.476562 C 20.742188 212.234375 22.445312 212 24.132812 211.773438 C 25.070312 211.648438 25.140625 211.710938 25.382812 212.660156 C 26.773438 218.109375 28.160156 223.558594 29.550781 229.007812 C 29.617188 229.265625 29.597656 229.582031 29.898438 229.761719 C 30.023438 229.546875 30.105469 229.308594 30.144531 229.0625 C 31.714844 223.078125 33.296875 217.09375 34.84375 211.105469 C 34.914062 210.566406 35.367188 210.160156 35.910156 210.144531 C 38.15625 209.851562 40.371094 209.503906 42.605469 209.183594 C 42.648438 209.183594 42.699219 209.210938 42.75 209.226562 C 42.777344 209.425781 42.742188 209.628906 42.65625 209.804688 C 39.632812 219.921875 36.613281 230.039062 33.597656 240.15625 C 33.355469 240.972656 32.925781 241.335938 32.097656 241.394531 C 30.640625 241.519531 29.195312 241.71875 27.757812 241.996094 C 26.980469 242.132812 26.796875 241.996094 26.578125 241.1875 C 25.25 236.144531 23.917969 231.101562 22.59375 226.058594 C 22.335938 225.09375 22.082031 224.132812 21.824219 223.179688 C 21.769531 222.984375 21.695312 222.796875 21.582031 222.457031 C 21.222656 223.800781 20.898438 224.996094 20.585938 226.195312 C 19.152344 231.660156 17.722656 237.125 16.289062 242.589844 C 16.042969 243.527344 15.882812 243.648438 14.941406 243.753906 C 13.539062 243.910156 12.144531 244.097656 10.753906 244.339844 C 9.632812 244.53125 9.566406 244.476562 9.210938 243.402344 L 3.535156 226.128906 L 0.0625 215.566406 C 0.0429688 215.5 0.0273438 215.429688 0.00390625 215.320312 L 4.199219 214.703125 C 5.136719 214.566406 6.074219 214.425781 7.011719 214.28125 C 7.765625 214.164062 7.910156 214.246094 8.109375 214.964844 C 9.65625 220.585938 11.199219 226.207031 12.742188 231.828125 C 12.792969 232.046875 12.898438 232.246094 13.046875 232.414062 Z M 13.046875 232.414062 "/>
<path style=" stroke:none;fill-rule:nonzero;fill:rgb(7.45098%,3.137255%,30.196078%);fill-opacity:1;" d="M 35.433594 189.371094 C 35.757812 188.890625 36.035156 188.378906 36.261719 187.84375 C 38.582031 183.039062 40.910156 178.214844 43.195312 173.386719 C 43.527344 172.539062 44.328125 171.96875 45.238281 171.9375 C 46.6875 171.796875 48.125 171.496094 49.566406 171.265625 C 49.871094 171.21875 50.171875 171.15625 50.480469 171.132812 C 50.894531 171.101562 51.03125 171.238281 51.070312 171.652344 C 51.085938 171.832031 51.070312 172.007812 51.070312 172.1875 C 51.070312 181.578125 51.070312 190.976562 51.070312 200.382812 C 51.070312 200.511719 51.070312 200.636719 51.070312 200.765625 C 51.046875 201.386719 50.925781 201.539062 50.332031 201.628906 C 48.457031 201.898438 46.578125 202.164062 44.703125 202.425781 C 43.996094 202.523438 43.945312 202.464844 43.945312 201.785156 C 43.945312 196.789062 43.945312 191.796875 43.945312 186.804688 C 43.945312 186.640625 44.003906 186.457031 43.875 186.304688 C 43.621094 186.28125 43.585938 186.488281 43.511719 186.621094 C 41.777344 189.957031 40.027344 193.289062 38.332031 196.644531 C 37.882812 197.53125 37.285156 197.988281 36.292969 197.945312 C 35.804688 197.949219 35.320312 198.023438 34.851562 198.167969 C 33.636719 198.488281 33.066406 198.273438 32.402344 197.1875 C 31.460938 195.632812 30.550781 194.058594 29.613281 192.507812 C 28.765625 191.109375 27.898438 189.722656 27.007812 188.285156 C 26.757812 188.558594 26.855469 188.847656 26.851562 189.105469 C 26.851562 193.890625 26.851562 198.679688 26.851562 203.46875 C 26.851562 203.621094 26.851562 203.789062 26.851562 203.929688 C 26.832031 204.890625 26.640625 205.085938 25.695312 205.175781 C 24.113281 205.328125 22.542969 205.566406 20.976562 205.835938 C 20.824219 205.863281 20.675781 205.90625 20.523438 205.921875 C 20.003906 205.960938 19.882812 205.851562 19.828125 205.347656 C 19.808594 205.089844 19.828125 204.835938 19.828125 204.578125 C 19.828125 195.769531 19.828125 186.960938 19.828125 178.152344 C 19.828125 177.640625 19.828125 177.128906 19.828125 176.617188 C 19.828125 175.601562 19.917969 175.503906 20.949219 175.378906 C 21.789062 175.277344 22.628906 175.179688 23.46875 175.058594 C 24.304688 174.941406 25.089844 174.820312 25.898438 174.6875 C 26.820312 174.53125 27.042969 174.621094 27.5 175.449219 C 28.832031 177.8125 30.160156 180.179688 31.484375 182.542969 C 32.601562 184.53125 33.722656 186.511719 34.847656 188.492188 C 34.992188 188.816406 35.191406 189.113281 35.433594 189.371094 Z M 35.433594 189.371094 "/>
<path style=" stroke:none;fill-rule:nonzero;fill:rgb(46.666667%,16.862745%,92.941176%);fill-opacity:1;" d="M 157.214844 112.042969 C 157.792969 111.78125 158.421875 111.851562 159.027344 111.777344 C 161.183594 111.511719 163.351562 111.328125 165.511719 111.09375 C 168.105469 110.8125 170.699219 110.507812 173.292969 110.226562 C 175.40625 109.996094 177.519531 109.792969 179.628906 109.566406 C 182.222656 109.285156 184.816406 108.984375 187.410156 108.699219 C 188.960938 108.527344 190.511719 108.351562 192.066406 108.21875 C 192.738281 108.160156 193.167969 107.882812 193.351562 107.222656 C 193.523438 106.6875 193.75 106.171875 194.023438 105.683594 C 194.21875 105.917969 194.472656 106.101562 194.761719 106.214844 L 208.394531 113.949219 C 208.570312 114.042969 208.773438 114.101562 208.890625 114.308594 C 208.644531 114.53125 208.351562 114.699219 208.035156 114.796875 C 197.695312 119.765625 187.355469 124.730469 177.011719 129.6875 C 176.550781 129.910156 176.089844 130.136719 175.625 130.351562 C 174.554688 130.851562 174.132812 130.78125 173.328125 129.894531 C 171.84375 128.265625 170.378906 126.621094 168.902344 124.988281 L 157.554688 112.453125 C 157.4375 112.324219 157.328125 112.179688 157.214844 112.042969 Z M 157.214844 112.042969 "/>
<path style=" stroke:none;fill-rule:nonzero;fill:rgb(46.666667%,16.862745%,92.941176%);fill-opacity:1;" d="M 81.980469 82.238281 C 81.980469 82.367188 82 82.488281 82 82.617188 C 82 88.234375 82.007812 93.847656 82.019531 99.464844 C 82.019531 99.664062 81.992188 99.871094 81.980469 100.070312 C 79.03125 101.886719 76.265625 103.964844 73.425781 105.9375 C 71.761719 107.089844 70.085938 108.226562 68.445312 109.414062 C 67.957031 109.84375 67.230469 109.871094 66.707031 109.484375 C 61.28125 106.28125 55.84375 103.097656 50.398438 99.925781 C 47.28125 98.105469 44.164062 96.285156 41.046875 94.460938 C 40.765625 94.359375 40.523438 94.171875 40.351562 93.929688 L 44.425781 92.777344 L 80.9375 82.492188 C 81.28125 82.398438 81.628906 82.320312 81.980469 82.238281 Z M 81.980469 82.238281 "/>
<path style=" stroke:none;fill-rule:nonzero;fill:rgb(7.843137%,3.137255%,29.803922%);fill-opacity:1;" d="M 90.058594 177.78125 C 89.953125 178.070312 89.917969 178.386719 89.960938 178.695312 C 89.960938 183.917969 89.960938 189.148438 89.960938 194.378906 C 89.960938 194.480469 89.960938 194.585938 89.960938 194.699219 C 89.960938 195.863281 89.828125 196.003906 88.660156 196.113281 C 87.027344 196.273438 85.410156 196.550781 83.789062 196.796875 C 83.003906 196.917969 82.945312 196.882812 82.941406 196.089844 C 82.941406 192.605469 82.941406 189.125 82.941406 185.640625 C 82.941406 179.777344 82.933594 173.90625 82.921875 168.035156 C 82.921875 166.625 83.019531 166.496094 84.390625 166.335938 C 85.84375 166.167969 87.289062 165.992188 88.71875 165.695312 C 89.503906 165.535156 90.003906 165.777344 90.46875 166.425781 C 94.113281 171.4375 97.796875 176.425781 101.464844 181.414062 C 101.675781 181.703125 101.894531 181.984375 102.140625 182.3125 C 102.28125 182.058594 102.324219 181.761719 102.261719 181.476562 C 102.261719 176.019531 102.261719 170.566406 102.261719 165.113281 C 102.261719 163.707031 102.347656 163.636719 103.777344 163.511719 C 105.308594 163.371094 106.820312 163.105469 108.335938 162.851562 C 108.515625 162.820312 108.691406 162.796875 108.871094 162.785156 C 109 162.765625 109.132812 162.808594 109.226562 162.894531 C 109.324219 162.984375 109.378906 163.109375 109.371094 163.242188 C 109.371094 163.472656 109.371094 163.703125 109.371094 163.933594 C 109.371094 172.71875 109.371094 181.5 109.371094 190.28125 C 109.371094 190.949219 109.371094 191.613281 109.371094 192.28125 C 109.371094 193.078125 109.246094 193.214844 108.46875 193.328125 C 106.945312 193.542969 105.425781 193.75 103.90625 193.964844 C 102.097656 194.226562 102.546875 194.390625 101.421875 192.886719 C 97.835938 188.054688 94.25 183.222656 90.65625 178.398438 C 90.5 178.179688 90.382812 177.90625 90.058594 177.78125 Z M 90.058594 177.78125 "/>
<path style=" stroke:none;fill-rule:nonzero;fill:rgb(7.843137%,3.137255%,29.803922%);fill-opacity:1;" d="M 61.742188 206.128906 C 66.007812 206.089844 69.699219 207.394531 72.460938 210.789062 C 73.953125 212.625 74.703125 214.800781 75.023438 217.113281 C 75.527344 220.742188 75.132812 224.269531 73.558594 227.601562 C 70.996094 233.015625 66.722656 236.289062 60.902344 237.578125 C 58.273438 238.160156 55.613281 238.238281 52.988281 237.503906 C 48.058594 236.121094 45.046875 232.84375 44.015625 227.898438 C 42.347656 219.800781 46.648438 209.503906 57.332031 206.773438 C 58.777344 206.410156 60.253906 206.195312 61.742188 206.128906 Z M 67.660156 221.019531 C 67.644531 219.738281 67.394531 218.472656 66.917969 217.285156 C 65.875 214.722656 63.390625 212.777344 60.210938 212.992188 C 58.046875 213.140625 56.007812 214.070312 54.480469 215.605469 C 51.984375 218.03125 51.023438 221.015625 51.351562 224.457031 C 51.804688 229.261719 56.058594 232.121094 60.648438 230.730469 C 64.757812 229.484375 67.652344 225.472656 67.660156 221.023438 Z M 67.660156 221.019531 "/>
<path style=" stroke:none;fill-rule:nonzero;fill:rgb(7.45098%,2.745098%,29.803922%);fill-opacity:1;" d="M 132.140625 211.632812 C 132.140625 207.027344 132.140625 202.417969 132.140625 197.8125 C 132.140625 197.554688 132.140625 197.300781 132.140625 197.042969 C 132.175781 196.484375 132.308594 196.3125 132.859375 196.222656 C 133.820312 196.066406 134.78125 195.941406 135.746094 195.808594 C 138.230469 195.460938 140.707031 195.0625 143.195312 194.773438 C 145.6875 194.484375 148.21875 194.496094 150.628906 195.375 C 154.765625 196.878906 157.363281 199.835938 158.222656 204.109375 C 159.160156 208.722656 158.542969 213.1875 156.101562 217.285156 C 153.582031 221.523438 149.757812 224.007812 145.015625 225.128906 C 143.070312 225.589844 141.070312 225.726562 139.097656 226.035156 C 137.125 226.339844 135.144531 226.597656 133.167969 226.878906 C 132.242188 227.007812 132.144531 226.933594 132.144531 225.984375 C 132.144531 221.199219 132.144531 216.414062 132.144531 211.628906 Z M 139.175781 210.582031 C 139.175781 213.246094 139.175781 215.914062 139.175781 218.585938 C 139.175781 219.476562 139.300781 219.589844 140.15625 219.453125 C 141.007812 219.320312 141.929688 219.1875 142.804688 219.007812 C 146.097656 218.335938 148.574219 216.5625 150.035156 213.5 C 150.882812 211.648438 151.179688 209.59375 150.890625 207.578125 C 150.421875 203.558594 147.289062 200.90625 143.339844 201.214844 C 142.167969 201.308594 141.003906 201.503906 139.835938 201.667969 C 139.371094 201.734375 139.234375 201.90625 139.195312 202.375 C 139.195312 202.53125 139.195312 202.695312 139.195312 202.835938 C 139.183594 205.414062 139.175781 207.992188 139.175781 210.578125 Z M 139.175781 210.582031 "/>
<path style=" stroke:none;fill-rule:nonzero;fill:rgb(7.45098%,2.745098%,29.803922%);fill-opacity:1;" d="M 96.449219 220.441406 C 98.746094 222.652344 100.683594 225.207031 102.191406 228.019531 C 102.574219 228.738281 102.933594 229.476562 103.261719 230.222656 C 103.542969 230.863281 103.425781 231.070312 102.75 231.15625 C 100.640625 231.429688 98.535156 231.726562 96.4375 232.046875 C 95.542969 232.1875 95.363281 232.066406 94.9375 231.214844 C 93.816406 228.933594 92.363281 226.835938 90.621094 224.988281 L 90.410156 224.761719 C 89.089844 223.40625 88.664062 223.25 86.800781 223.460938 C 86.082031 223.539062 85.984375 223.660156 85.984375 224.371094 C 85.984375 227.113281 85.984375 229.851562 85.984375 232.589844 C 85.984375 233.394531 85.777344 233.632812 84.960938 233.71875 C 83.253906 233.898438 81.558594 234.175781 79.867188 234.460938 C 79.089844 234.585938 78.90625 234.441406 78.90625 233.617188 C 78.90625 224.042969 78.90625 214.464844 78.90625 204.886719 C 78.90625 204.082031 79.003906 203.957031 79.804688 203.839844 C 82.4375 203.453125 85.074219 203.070312 87.714844 202.710938 C 89.414062 202.476562 91.097656 202.121094 92.816406 202.070312 C 93.996094 202.003906 95.175781 202.113281 96.324219 202.390625 C 99.121094 203.109375 100.875 204.871094 101.511719 207.667969 C 102.15625 210.40625 101.996094 213.109375 100.753906 215.671875 C 99.914062 217.351562 98.660156 218.792969 97.113281 219.863281 L 96.492188 220.308594 C 96.492188 220.3125 96.488281 220.335938 96.449219 220.441406 Z M 86.09375 213.277344 C 86.09375 214.34375 86.09375 215.417969 86.09375 216.496094 C 86.09375 217.28125 86.28125 217.457031 87.058594 217.308594 C 87.832031 217.164062 88.621094 217.070312 89.410156 216.964844 C 90.429688 216.859375 91.414062 216.53125 92.292969 216.003906 C 93.777344 215.148438 94.621094 213.503906 94.441406 211.800781 C 94.40625 210.15625 93.058594 208.839844 91.410156 208.839844 C 90.925781 208.820312 90.4375 208.835938 89.953125 208.890625 C 88.9375 209.003906 87.925781 209.148438 86.914062 209.277344 C 86.191406 209.367188 86.09375 209.472656 86.09375 210.195312 C 86.09375 211.226562 86.09375 212.253906 86.09375 213.277344 Z M 86.09375 213.277344 "/>
<path style=" stroke:none;fill-rule:nonzero;fill:rgb(7.843137%,3.137255%,29.803922%);fill-opacity:1;" d="M 200.96875 196.933594 C 200.96875 193.8125 200.96875 190.6875 200.96875 187.5625 C 200.96875 187.4375 200.972656 187.308594 200.984375 187.179688 C 201.0625 186.515625 201.234375 186.339844 201.890625 186.257812 C 203.082031 186.105469 204.277344 185.960938 205.46875 185.800781 C 206.054688 185.71875 206.628906 185.609375 207.214844 185.519531 C 208.175781 185.371094 208.304688 185.496094 208.304688 186.4375 C 208.304688 192.019531 208.304688 197.597656 208.304688 203.179688 C 208.28125 204.179688 208.445312 205.175781 208.78125 206.117188 C 209.53125 208.113281 211.066406 209.035156 213.210938 208.929688 C 216.417969 208.769531 219.128906 206.550781 219.207031 202.351562 C 219.28125 198.589844 219.242188 194.824219 219.246094 191.0625 C 219.246094 189.015625 219.226562 186.96875 219.230469 184.921875 C 219.230469 184.050781 219.46875 183.777344 220.34375 183.679688 C 222.023438 183.492188 223.6875 183.210938 225.351562 182.910156 C 226.34375 182.730469 226.445312 182.828125 226.445312 183.871094 C 226.445312 186.75 226.496094 189.605469 226.410156 192.472656 C 226.3125 195.671875 226.511719 198.875 226.335938 202.074219 C 226.269531 203.585938 226.007812 205.078125 225.550781 206.519531 C 224.359375 210.148438 222.027344 212.773438 218.5 214.292969 C 215.667969 215.527344 212.558594 216 209.484375 215.652344 C 205.066406 215.160156 202.316406 212.632812 201.367188 208.289062 C 201.097656 206.90625 200.972656 205.5 200.996094 204.09375 C 200.980469 201.710938 200.996094 199.332031 200.996094 196.949219 Z M 200.96875 196.933594 "/>
<path style=" stroke:none;fill-rule:nonzero;fill:rgb(7.45098%,2.745098%,29.803922%);fill-opacity:1;" d="M 56.402344 185.488281 C 56.402344 180.90625 56.402344 176.324219 56.402344 171.742188 C 56.402344 171.589844 56.402344 171.421875 56.402344 171.28125 C 56.402344 170.425781 56.566406 170.25 57.390625 170.132812 L 75.113281 167.644531 C 75.644531 167.570312 76.175781 167.46875 76.714844 167.394531 C 77.457031 167.296875 77.652344 167.460938 77.621094 168.214844 C 77.570312 169.367188 77.550781 170.519531 77.582031 171.671875 C 77.582031 172.078125 77.621094 172.488281 77.609375 172.894531 C 77.609375 173.535156 77.441406 173.726562 76.820312 173.8125 C 74.945312 174.078125 73.066406 174.332031 71.191406 174.589844 C 68.90625 174.898438 66.660156 175.199219 64.417969 175.519531 C 63.59375 175.632812 63.332031 175.925781 63.390625 176.746094 C 63.457031 178.027344 63.457031 179.308594 63.390625 180.589844 C 63.367188 181.382812 63.566406 181.550781 64.351562 181.421875 L 75.75 179.730469 C 76.265625 179.652344 76.390625 179.75 76.390625 180.289062 C 76.410156 181.925781 76.410156 183.5625 76.390625 185.199219 C 76.390625 185.714844 76.300781 185.796875 75.683594 185.894531 C 74.164062 186.125 72.644531 186.351562 71.125 186.566406 C 68.84375 186.886719 66.5625 187.207031 64.277344 187.527344 C 63.496094 187.636719 63.367188 187.792969 63.367188 188.5625 C 63.367188 189.894531 63.367188 191.226562 63.367188 192.554688 C 63.367188 193.285156 63.507812 193.402344 64.246094 193.292969 L 77.164062 191.394531 C 77.242188 191.394531 77.316406 191.367188 77.390625 191.359375 C 78.015625 191.304688 78.128906 191.378906 78.152344 192 C 78.179688 192.667969 78.152344 193.332031 78.152344 194 C 78.152344 194.960938 78.152344 195.894531 78.152344 196.839844 C 78.152344 197.582031 78.046875 197.695312 77.355469 197.800781 C 72.613281 198.476562 67.875 199.152344 63.132812 199.828125 C 61.257812 200.097656 59.386719 200.386719 57.511719 200.667969 C 57.335938 200.691406 57.15625 200.714844 56.976562 200.722656 C 56.820312 200.746094 56.664062 200.695312 56.550781 200.585938 C 56.4375 200.476562 56.382812 200.324219 56.402344 200.167969 C 56.390625 199.742188 56.382812 199.304688 56.382812 198.863281 C 56.398438 194.398438 56.402344 189.941406 56.402344 185.488281 Z M 56.402344 185.488281 "/>
<path style=" stroke:none;fill-rule:nonzero;fill:rgb(7.843137%,3.137255%,29.803922%);fill-opacity:1;" d="M 227.332031 161.542969 C 227.332031 165.019531 226.519531 168.449219 224.957031 171.558594 C 222.550781 176.320312 217.449219 179.101562 212.136719 178.550781 C 209.265625 178.320312 206.707031 176.648438 205.34375 174.117188 C 204.425781 172.484375 203.824219 170.691406 203.570312 168.835938 C 203.015625 165.390625 203.15625 161.867188 203.988281 158.476562 C 204.542969 156.125 205.601562 153.925781 207.097656 152.027344 C 209.289062 149.328125 212.183594 147.886719 215.578125 147.390625 C 216.105469 147.316406 216.574219 147.011719 217.132812 147.089844 C 219.058594 147.367188 220.949219 147.753906 222.582031 148.925781 C 224.046875 149.984375 225.15625 151.460938 225.757812 153.164062 C 226.765625 155.84375 227.296875 158.679688 227.332031 161.542969 Z M 210.414062 163.253906 C 210.398438 164.453125 210.46875 165.648438 210.625 166.835938 C 210.761719 168.007812 211.148438 169.136719 211.753906 170.148438 C 212.992188 172.121094 215.277344 172.523438 217.121094 171.109375 C 217.75 170.621094 218.265625 170.003906 218.632812 169.296875 C 219.035156 168.554688 219.332031 167.757812 219.519531 166.933594 C 220.097656 164.304688 220.191406 161.59375 219.792969 158.933594 C 219.664062 157.835938 219.316406 156.777344 218.769531 155.820312 C 217.90625 154.367188 216.4375 153.675781 214.875 153.996094 C 213.992188 154.195312 213.195312 154.667969 212.605469 155.351562 C 211.972656 156.058594 211.5 156.894531 211.21875 157.800781 C 210.632812 159.554688 210.359375 161.402344 210.414062 163.253906 Z M 210.414062 163.253906 "/>
<path style=" stroke:none;fill-rule:nonzero;fill:rgb(7.843137%,3.137255%,29.803922%);fill-opacity:1;" d="M 110.824219 252.476562 C 110.847656 249.355469 111.144531 246.667969 112.128906 244.101562 C 113.09375 241.492188 114.777344 239.210938 116.984375 237.519531 C 119.3125 235.765625 121.96875 235.078125 124.851562 235.1875 C 125.671875 235.199219 126.492188 235.300781 127.292969 235.484375 C 129.441406 236.007812 131.261719 237.421875 132.300781 239.371094 C 133.144531 240.859375 133.585938 242.492188 133.9375 244.144531 C 135.015625 248.933594 134.429688 253.945312 132.28125 258.359375 C 130.449219 262.175781 127.453125 264.578125 123.292969 265.472656 C 121.152344 265.949219 118.914062 265.757812 116.882812 264.917969 C 115.136719 264.191406 113.699219 262.875 112.820312 261.199219 C 111.722656 259.164062 111.074219 256.917969 110.921875 254.613281 C 110.855469 253.773438 110.84375 252.925781 110.824219 252.476562 Z M 127.222656 249.09375 C 127.210938 248.339844 127.152344 247.59375 127.039062 246.851562 C 126.941406 245.726562 126.628906 244.632812 126.113281 243.628906 C 124.925781 241.496094 122.613281 241.066406 120.71875 242.601562 C 119.765625 243.390625 119.085938 244.460938 118.777344 245.660156 C 117.890625 248.878906 117.824219 252.273438 118.59375 255.523438 C 118.773438 256.347656 119.132812 257.121094 119.648438 257.789062 C 120.238281 258.625 121.230469 259.078125 122.25 258.976562 C 123.417969 258.910156 124.5 258.339844 125.214844 257.414062 C 125.605469 256.910156 125.925781 256.351562 126.15625 255.753906 C 126.976562 253.753906 127.171875 251.644531 127.222656 249.09375 Z M 127.222656 249.09375 "/>
<path style=" stroke:none;fill-rule:nonzero;fill:rgb(7.843137%,3.137255%,29.803922%);fill-opacity:1;" d="M 188.148438 188.035156 C 191.144531 188 194.070312 188.925781 196.503906 190.671875 C 196.675781 190.785156 196.835938 190.910156 196.992188 191.046875 C 197.246094 191.246094 197.300781 191.609375 197.117188 191.875 C 197.023438 192.03125 196.914062 192.171875 196.796875 192.316406 L 193.503906 196.757812 C 193.398438 196.902344 193.289062 197.046875 193.183594 197.183594 C 193.109375 197.292969 192.996094 197.363281 192.867188 197.382812 C 192.738281 197.402344 192.605469 197.367188 192.503906 197.285156 C 192.3125 197.164062 192.136719 197.007812 191.949219 196.875 C 189.171875 194.828125 186.199219 194.480469 183.035156 195.863281 C 179.511719 197.414062 177.554688 200.101562 177.164062 203.929688 C 176.96875 205.484375 177.132812 207.0625 177.644531 208.542969 C 178.542969 211.230469 181.078125 213.03125 183.914062 213.003906 C 187.195312 213.003906 190.101562 211.976562 192.519531 209.710938 C 192.652344 209.589844 192.773438 209.457031 192.90625 209.339844 C 193.300781 208.992188 193.449219 208.992188 193.78125 209.421875 C 194.882812 210.835938 195.972656 212.257812 197.054688 213.6875 C 197.375 214.113281 197.351562 214.292969 196.921875 214.648438 C 192.777344 218.167969 188.046875 220.1875 182.519531 220.011719 C 180.695312 220 178.886719 219.6875 177.164062 219.082031 C 173.433594 217.664062 171.195312 214.921875 170.113281 211.128906 C 169.519531 209.046875 169.546875 206.921875 169.675781 204.804688 C 169.828125 201.695312 170.808594 198.679688 172.519531 196.078125 C 175.085938 192.238281 178.699219 189.894531 183.117188 188.714844 C 184.132812 188.449219 185.167969 188.257812 186.210938 188.140625 C 186.863281 188.074219 187.507812 188.070312 188.148438 188.035156 Z M 188.148438 188.035156 "/>
<path style=" stroke:none;fill-rule:nonzero;fill:rgb(7.843137%,3.137255%,29.803922%);fill-opacity:1;" d="M 136.878906 158.441406 C 139.1875 158.445312 141.472656 158.917969 143.589844 159.832031 C 143.777344 159.914062 143.964844 160 144.144531 160.09375 C 144.855469 160.464844 144.949219 160.710938 144.523438 161.351562 C 143.523438 162.871094 142.601562 164.433594 141.683594 166.003906 C 141.285156 166.6875 141.070312 166.742188 140.402344 166.324219 C 138.894531 165.332031 137.109375 164.839844 135.304688 164.910156 C 134.664062 164.941406 134.03125 165.042969 133.410156 165.210938 C 132.8125 165.367188 132.269531 165.691406 131.851562 166.144531 C 130.726562 167.332031 130.996094 169 132.445312 169.753906 C 133.253906 170.144531 134.109375 170.425781 134.992188 170.589844 C 136.769531 170.960938 138.527344 171.421875 140.261719 171.96875 C 141.191406 172.257812 142.074219 172.679688 142.886719 173.214844 C 144.355469 174.164062 145.320312 175.722656 145.507812 177.457031 C 145.765625 179.34375 145.550781 181.265625 144.886719 183.050781 C 144.203125 184.949219 142.871094 186.550781 141.125 187.566406 C 137.960938 189.457031 134.328125 190.417969 130.644531 190.347656 C 128.410156 190.285156 126.210938 189.769531 124.179688 188.839844 C 123.945312 188.734375 123.71875 188.617188 123.5 188.484375 C 123.261719 188.355469 123.167969 188.0625 123.28125 187.816406 C 123.335938 187.671875 123.398438 187.535156 123.472656 187.398438 C 124.269531 185.824219 125.011719 184.222656 125.714844 182.597656 C 126.050781 181.832031 126.183594 181.785156 126.929688 182.175781 C 128.96875 183.285156 131.277344 183.789062 133.59375 183.636719 C 134.386719 183.597656 135.171875 183.445312 135.925781 183.183594 C 136.707031 182.914062 137.367188 182.375 137.792969 181.664062 C 138.117188 181.1875 138.214844 180.589844 138.058594 180.035156 C 137.902344 179.480469 137.511719 179.023438 136.984375 178.785156 C 136.367188 178.476562 135.710938 178.242188 135.035156 178.09375 C 133.433594 177.6875 131.832031 177.480469 130.226562 177.023438 C 129.238281 176.761719 128.28125 176.378906 127.382812 175.890625 C 124.9375 174.476562 123.636719 172.367188 123.648438 169.539062 C 123.667969 165.207031 125.636719 162.066406 129.511719 160.125 C 131.8125 159.027344 134.328125 158.453125 136.878906 158.441406 Z M 136.878906 158.441406 "/>
<path style=" stroke:none;fill-rule:nonzero;fill:rgb(7.843137%,3.137255%,29.803922%);fill-opacity:1;" d="M 182.609375 160.761719 C 182.609375 158.519531 182.609375 156.277344 182.609375 154.058594 C 182.589844 153.746094 182.761719 153.453125 183.042969 153.316406 C 186.1875 151.492188 189.496094 150.332031 193.207031 150.757812 C 194.125 150.847656 195.027344 151.078125 195.875 151.4375 C 198.46875 152.585938 199.816406 154.609375 200 157.410156 C 200.15625 159.796875 199.488281 162.011719 198.492188 164.132812 C 197.644531 165.882812 196.574219 167.523438 195.3125 169.003906 C 193.9375 170.660156 192.546875 172.296875 191.164062 173.945312 C 190.898438 174.214844 190.679688 174.523438 190.523438 174.863281 L 194.300781 174.328125 C 196.175781 174.054688 198.050781 173.773438 199.925781 173.511719 C 200.746094 173.394531 200.867188 173.511719 200.890625 174.347656 C 200.902344 175.90625 200.90625 177.46875 200.90625 179.03125 C 200.90625 179.757812 200.765625 179.945312 200.054688 180.050781 C 197.8125 180.371094 195.542969 180.691406 193.289062 181.011719 C 189.945312 181.492188 186.601562 181.980469 183.253906 182.472656 C 182.496094 182.582031 181.734375 182.703125 180.976562 182.808594 C 180.320312 182.898438 180.226562 182.789062 180.136719 182.089844 C 180.007812 181.308594 179.984375 180.511719 180.074219 179.722656 C 180.289062 178.265625 180.949219 176.914062 181.964844 175.851562 C 184.886719 172.6875 187.539062 169.296875 190.25 165.960938 C 191.003906 165.085938 191.625 164.105469 192.097656 163.050781 C 192.46875 162.207031 192.652344 161.289062 192.636719 160.367188 C 192.578125 158.578125 191.457031 157.527344 189.660156 157.621094 C 188.171875 157.695312 186.820312 158.261719 185.511719 158.898438 C 184.648438 159.351562 183.835938 159.894531 183.09375 160.519531 C 182.960938 160.644531 182.875 160.792969 182.609375 160.761719 Z M 182.609375 160.761719 "/>
<path style=" stroke:none;fill-rule:nonzero;fill:rgb(7.843137%,3.137255%,29.803922%);fill-opacity:1;" d="M 146.234375 255.285156 C 147.734375 255.085938 149.058594 254.925781 150.375 254.738281 C 151.84375 254.53125 153.308594 254.296875 154.78125 254.078125 C 155.492188 253.972656 155.679688 254.117188 155.679688 254.820312 C 155.679688 256.382812 155.679688 257.945312 155.679688 259.503906 C 155.679688 260.199219 155.5625 260.339844 154.847656 260.445312 C 153.304688 260.667969 151.753906 260.875 150.207031 261.082031 L 141.160156 262.386719 C 139.710938 262.59375 138.273438 262.820312 136.828125 263.027344 C 136.265625 263.105469 136.105469 262.980469 136.113281 262.429688 C 136.128906 261.359375 136.097656 260.289062 136.023438 259.207031 C 136.015625 258.742188 136.199219 258.292969 136.53125 257.964844 C 138.394531 255.71875 140.257812 253.46875 142.117188 251.21875 C 143.484375 249.558594 144.847656 247.894531 146.207031 246.226562 C 146.863281 245.441406 147.410156 244.566406 147.828125 243.628906 C 148.113281 242.972656 148.300781 242.277344 148.382812 241.566406 C 148.617188 239.523438 147.214844 238.144531 145.179688 238.425781 C 143.550781 238.664062 142.003906 239.289062 140.664062 240.246094 C 140.433594 240.40625 140.210938 240.566406 139.996094 240.761719 C 139.113281 241.507812 139.105469 241.875 138.300781 240.492188 C 137.609375 239.296875 136.859375 238.136719 136.140625 236.972656 C 135.800781 236.414062 135.816406 236.367188 136.328125 235.96875 C 138.925781 233.988281 141.777344 232.507812 145.035156 231.984375 C 146.984375 231.632812 148.984375 231.703125 150.902344 232.199219 C 153.609375 232.945312 155.132812 234.777344 155.550781 237.519531 C 155.949219 240.136719 155.335938 242.601562 154.21875 244.960938 C 153.394531 246.636719 152.351562 248.203125 151.121094 249.609375 C 149.839844 251.113281 148.558594 252.597656 147.257812 254.09375 C 146.941406 254.425781 146.652344 254.78125 146.234375 255.285156 Z M 146.234375 255.285156 "/>
<path style=" stroke:none;fill-rule:nonzero;fill:rgb(7.843137%,3.137255%,29.803922%);fill-opacity:1;" d="M 98.527344 262.171875 C 99.882812 261.988281 101.199219 261.808594 102.511719 261.621094 C 103.90625 261.421875 105.304688 261.273438 106.679688 260.980469 C 107.523438 260.796875 107.875 261.09375 107.800781 261.941406 C 107.660156 263.5 107.710938 265.058594 107.710938 266.617188 C 107.710938 267.164062 107.597656 267.273438 106.960938 267.367188 C 105.800781 267.539062 104.628906 267.6875 103.460938 267.859375 L 93.121094 269.339844 C 91.675781 269.546875 90.238281 269.765625 88.789062 269.980469 C 88.34375 270.042969 88.203125 269.949219 88.1875 269.515625 C 88.144531 268.289062 88.128906 267.058594 88.113281 265.832031 C 88.113281 265.410156 88.40625 265.136719 88.648438 264.84375 C 90.902344 262.125 93.15625 259.402344 95.410156 256.683594 C 96.453125 255.417969 97.496094 254.152344 98.511719 252.867188 C 99.414062 251.777344 100.046875 250.492188 100.359375 249.113281 C 100.421875 248.8125 100.453125 248.507812 100.457031 248.203125 C 100.480469 246.191406 99.082031 245 97.109375 245.347656 C 95.230469 245.675781 93.476562 246.492188 92.023438 247.722656 C 91.847656 247.871094 91.683594 248.042969 91.5 248.171875 C 91.148438 248.441406 91.019531 248.417969 90.75 248.054688 C 90.703125 247.992188 90.667969 247.925781 90.628906 247.859375 C 89.828125 246.550781 89.023438 245.242188 88.226562 243.929688 C 87.882812 243.363281 87.90625 243.261719 88.433594 242.855469 C 91.042969 240.878906 93.882812 239.421875 97.152344 238.898438 C 99 238.59375 100.894531 238.640625 102.726562 239.03125 C 105.582031 239.644531 107.503906 242.015625 107.691406 245.011719 C 107.847656 247.554688 107.285156 250.089844 106.070312 252.332031 C 105.15625 253.992188 104.0625 255.546875 102.804688 256.96875 C 101.523438 258.488281 100.191406 259.988281 98.886719 261.5 C 98.683594 261.667969 98.554688 261.910156 98.527344 262.171875 Z M 98.527344 262.171875 "/>
<path style=" stroke:none;fill-rule:nonzero;fill:rgb(8.627451%,3.529412%,30.588235%);fill-opacity:1;" d="M 163.054688 173.503906 C 163.054688 169.945312 163.054688 166.386719 163.054688 162.828125 C 163.054688 162.675781 163.054688 162.507812 163.054688 162.367188 C 163.035156 161.601562 162.867188 161.46875 162.125 161.578125 C 160.125 161.867188 158.121094 162.152344 156.117188 162.4375 C 155.941406 162.464844 155.761719 162.492188 155.582031 162.5 C 155.453125 162.523438 155.320312 162.484375 155.222656 162.394531 C 155.125 162.304688 155.078125 162.175781 155.097656 162.042969 C 155.097656 161.582031 155.097656 161.121094 155.097656 160.660156 C 155.097656 159.484375 155.097656 158.308594 155.097656 157.140625 C 155.097656 156.289062 155.183594 156.160156 156.015625 156.039062 C 158.257812 155.71875 160.527344 155.398438 162.785156 155.078125 C 166.15625 154.597656 169.527344 154.113281 172.898438 153.625 C 174.367188 153.410156 175.835938 153.171875 177.304688 152.945312 C 178.117188 152.820312 178.285156 152.945312 178.25 153.769531 C 178.183594 155.304688 178.214844 156.839844 178.25 158.375 C 178.25 159.140625 178.148438 159.257812 177.398438 159.363281 C 175.394531 159.632812 173.390625 159.902344 171.386719 160.171875 C 170.460938 160.292969 170.308594 160.449219 170.308594 161.394531 C 170.308594 168.539062 170.316406 175.679688 170.335938 182.820312 C 170.335938 184.128906 170.425781 184.492188 168.761719 184.660156 C 167.097656 184.832031 165.507812 185.054688 163.890625 185.328125 C 163.152344 185.453125 163.066406 185.359375 163.066406 184.570312 C 163.066406 180.886719 163.066406 177.199219 163.066406 173.511719 Z M 163.054688 173.503906 "/>
<path style=" stroke:none;fill-rule:nonzero;fill:rgb(7.843137%,3.137255%,29.803922%);fill-opacity:1;" d="M 106.753906 215.214844 C 106.753906 210.632812 106.753906 206.046875 106.753906 201.464844 C 106.753906 201.285156 106.753906 201.105469 106.753906 200.925781 C 106.777344 200.125 106.996094 199.855469 107.789062 199.796875 C 108.710938 199.726562 109.625 199.625 110.535156 199.476562 C 111.394531 199.339844 112.257812 199.214844 113.101562 199.074219 C 114.011719 198.921875 114.195312 199.054688 114.199219 200.007812 C 114.199219 201.210938 114.171875 202.414062 114.167969 203.613281 C 114.167969 208.503906 114.167969 213.394531 114.167969 218.285156 C 114.167969 219.386719 114.167969 220.488281 114.148438 221.585938 C 114.148438 221.714844 114.148438 221.84375 114.148438 221.972656 C 114.164062 222.929688 114.351562 223.082031 115.320312 222.929688 C 116.359375 222.773438 117.394531 222.609375 118.433594 222.453125 C 121.394531 222.015625 124.359375 221.578125 127.324219 221.144531 C 127.988281 221.050781 128.105469 221.144531 128.109375 221.804688 C 128.109375 223.46875 128.109375 225.132812 128.109375 226.796875 C 128.109375 227.394531 128.019531 227.488281 127.410156 227.578125 C 124.292969 228.03125 121.175781 228.480469 118.058594 228.925781 C 114.636719 229.414062 111.21875 229.894531 107.800781 230.375 C 107.75 230.375 107.699219 230.398438 107.648438 230.402344 C 106.953125 230.484375 106.75 230.328125 106.746094 229.636719 C 106.746094 228.714844 106.746094 227.792969 106.746094 226.871094 C 106.75 223 106.753906 219.113281 106.753906 215.214844 Z M 106.753906 215.214844 "/>
<path style=" stroke:none;fill-rule:nonzero;fill:rgb(7.45098%,3.137255%,30.196078%);fill-opacity:1;" d="M 163.785156 238.183594 L 159.359375 242.085938 C 159.359375 240.988281 159.359375 240.054688 159.359375 239.125 C 159.359375 238.023438 159.332031 236.925781 159.339844 235.824219 C 159.328125 234.933594 159.753906 234.097656 160.480469 233.582031 C 161.390625 232.875 162.265625 232.121094 163.09375 231.320312 C 164.585938 229.933594 166.507812 229.097656 168.542969 228.960938 C 169.050781 228.914062 169.566406 228.871094 170.078125 228.871094 C 170.71875 228.871094 170.855469 229.003906 170.871094 229.632812 C 170.890625 230.527344 170.871094 231.425781 170.871094 232.320312 C 170.871094 234.0625 170.832031 235.804688 170.820312 237.542969 C 170.792969 244.097656 170.765625 250.652344 170.742188 257.207031 C 170.742188 258.167969 170.632812 258.320312 169.671875 258.421875 C 167.9375 258.613281 166.21875 258.882812 164.492188 259.121094 C 163.742188 259.222656 163.671875 259.164062 163.679688 258.441406 C 163.71875 254.375 163.765625 250.300781 163.792969 246.234375 C 163.8125 243.699219 163.792969 241.164062 163.792969 238.628906 C 163.824219 238.53125 163.808594 238.433594 163.785156 238.183594 Z M 163.785156 238.183594 "/>
<path style=" stroke:none;fill-rule:nonzero;fill:rgb(7.843137%,3.137255%,30.196078%);fill-opacity:1;" d="M 75.71875 152.582031 C 75.71875 147.046875 77.832031 142.78125 82.042969 139.566406 C 84.253906 137.808594 87.0625 136.976562 89.878906 137.246094 C 91.917969 137.433594 93.722656 138.082031 95.007812 139.808594 C 95.492188 140.472656 95.503906 140.488281 94.90625 141.058594 C 93.871094 142.050781 92.835938 143.042969 91.796875 144.035156 C 91.394531 144.417969 91.390625 144.410156 91.0625 144.019531 C 89.507812 142.128906 87.488281 141.777344 85.394531 143.058594 C 84.550781 143.546875 83.816406 144.207031 83.242188 144.996094 C 81.539062 147.34375 80.816406 150.257812 81.222656 153.128906 C 81.222656 153.207031 81.246094 153.28125 81.261719 153.355469 C 81.804688 155.777344 83.503906 156.800781 85.898438 156.148438 C 87.320312 155.777344 88.597656 154.988281 89.570312 153.886719 C 89.671875 153.773438 89.773438 153.652344 89.875 153.542969 C 89.945312 153.429688 90.066406 153.363281 90.195312 153.363281 C 90.324219 153.363281 90.445312 153.429688 90.515625 153.542969 L 92.945312 156.421875 C 93.199219 156.71875 93.097656 156.984375 92.859375 157.234375 C 91.144531 159.066406 89.140625 160.4375 86.683594 161.078125 C 84.859375 161.53125 82.957031 161.566406 81.121094 161.175781 C 78.421875 160.636719 76.835938 158.9375 76.15625 156.324219 C 75.878906 155.09375 75.730469 153.839844 75.71875 152.582031 Z M 75.71875 152.582031 "/>
<path style=" stroke:none;fill-rule:nonzero;fill:rgb(7.843137%,3.137255%,30.196078%);fill-opacity:1;" d="M 71.765625 147.371094 C 71.535156 147.289062 71.472656 147.082031 71.355469 146.917969 C 70.398438 145.449219 68.570312 144.804688 66.902344 145.347656 C 65.753906 145.667969 64.734375 146.328125 63.972656 147.238281 C 61.832031 149.722656 60.933594 153.039062 61.53125 156.257812 C 61.617188 156.738281 61.792969 157.199219 62.046875 157.617188 C 62.703125 158.765625 64.011719 159.378906 65.3125 159.152344 C 67.050781 158.894531 68.640625 158.03125 69.800781 156.714844 C 70.351562 156.09375 70.335938 155.84375 71.085938 156.765625 C 71.726562 157.539062 72.367188 158.285156 73.027344 159.046875 C 73.472656 159.574219 73.480469 159.644531 73.027344 160.140625 C 71.042969 162.351562 68.328125 163.773438 65.378906 164.148438 C 64.136719 164.355469 62.867188 164.332031 61.632812 164.078125 C 58.8125 163.441406 57.058594 161.660156 56.371094 158.882812 C 54.976562 153.261719 57.128906 146.109375 62.203125 142.449219 C 64.285156 140.925781 66.789062 140.085938 69.371094 140.050781 C 71.617188 140.007812 73.605469 140.722656 75.078125 142.535156 C 75.652344 143.242188 75.644531 143.328125 75.011719 144.003906 C 74.078125 144.992188 73.15625 145.988281 72.222656 146.972656 C 72.070312 147.113281 71.964844 147.300781 71.765625 147.371094 Z M 71.765625 147.371094 "/>
<path style=" stroke:none;fill-rule:nonzero;fill:rgb(7.843137%,3.137255%,30.196078%);fill-opacity:1;" d="M 46.4375 165.914062 C 46.664062 163.992188 46.890625 162.109375 47.113281 160.230469 C 47.433594 157.464844 47.785156 154.695312 48.117188 151.929688 C 48.4375 149.285156 48.734375 146.644531 49.046875 144 C 49.132812 143.277344 49.34375 143.042969 50.050781 142.976562 C 51.171875 142.871094 52.289062 142.707031 53.394531 142.488281 C 53.519531 142.464844 53.648438 142.453125 53.773438 142.449219 C 54.195312 142.449219 54.273438 142.527344 54.226562 142.9375 C 53.746094 146.953125 53.265625 150.964844 52.785156 154.976562 C 52.398438 158.203125 52.019531 161.429688 51.644531 164.65625 C 51.625 164.859375 51.578125 165.058594 51.554688 165.265625 C 51.542969 165.585938 51.28125 165.839844 50.960938 165.847656 C 49.644531 166.03125 48.324219 166.242188 47.007812 166.429688 C 46.433594 166.507812 46.40625 166.464844 46.4375 165.914062 Z M 46.4375 165.914062 "/>
<path style=" stroke:none;fill-rule:nonzero;fill:rgb(8.627451%,3.529412%,30.588235%);fill-opacity:1;" d="M 121.113281 161.082031 C 120.8125 162.363281 120.539062 163.570312 120.261719 164.761719 C 119.683594 167.226562 119.105469 169.691406 118.527344 172.152344 C 118.320312 173.039062 118.207031 173.113281 117.289062 173.195312 C 116.238281 173.269531 115.199219 173.402344 114.164062 173.597656 C 113.425781 173.734375 113.285156 173.628906 113.367188 172.851562 C 113.578125 170.839844 113.824219 168.832031 114.054688 166.828125 C 114.199219 165.605469 114.328125 164.386719 114.464844 163.164062 C 114.492188 162.9375 114.527344 162.707031 114.554688 162.480469 C 114.554688 162.125 114.839844 161.839844 115.195312 161.839844 Z M 121.113281 161.082031 "/>
<path style=" stroke:none;fill-rule:nonzero;fill:rgb(47.45098%,16.862745%,92.941176%);fill-opacity:1;" d="M 144.335938 2.761719 C 144.191406 4.070312 144.070312 5.183594 143.945312 6.285156 C 143.75 7.960938 143.550781 9.628906 143.355469 11.300781 C 143.28125 11.941406 143.269531 11.941406 142.714844 11.6875 C 140.636719 10.710938 138.5625 9.71875 136.386719 8.6875 Z M 144.335938 2.761719 "/>
<path style=" stroke:none;fill-rule:nonzero;fill:rgb(99.607843%,18.823529%,32.941176%);fill-opacity:1;" d="M 79.019531 51.414062 C 78.863281 51.492188 78.679688 51.503906 78.511719 51.449219 C 78.667969 51.367188 78.855469 51.355469 79.019531 51.414062 Z M 79.019531 51.414062 "/>
<path style=" stroke:none;fill-rule:nonzero;fill:rgb(99.607843%,99.607843%,99.607843%);fill-opacity:1;" d="M 57.417969 57.816406 C 58.550781 57.761719 59.640625 57.695312 60.734375 57.660156 C 67.445312 57.410156 74.15625 57.164062 80.867188 56.921875 C 84.394531 56.796875 87.9375 56.691406 91.472656 56.566406 C 96.648438 56.382812 101.820312 56.195312 106.996094 56.003906 C 110.453125 55.878906 113.910156 55.761719 117.371094 55.648438 C 119.753906 55.566406 122.132812 55.390625 124.519531 55.507812 C 126.546875 55.582031 128.542969 56.035156 130.402344 56.84375 C 136.726562 59.648438 139.496094 66.308594 137.011719 72.753906 C 136.5 74.042969 135.835938 75.257812 135.023438 76.378906 C 131.691406 81.082031 128.183594 85.664062 124.765625 90.285156 L 120.476562 96.09375 C 120.359375 96.253906 120.25 96.414062 120.082031 96.664062 C 120.792969 96.757812 121.402344 96.5625 122.007812 96.480469 C 124.773438 96.097656 127.53125 95.675781 130.296875 95.277344 C 131.558594 95.097656 131.578125 95.109375 131.546875 93.804688 C 131.546875 93.398438 131.492188 92.992188 131.445312 92.582031 C 131.277344 91.164062 131.664062 90.492188 133.03125 90.117188 C 135.894531 89.328125 138.660156 88.246094 141.472656 87.304688 C 142.152344 87.078125 142.820312 86.816406 143.496094 86.585938 C 144.375 86.285156 144.710938 86.371094 145.300781 87.105469 C 146.296875 88.371094 147.382812 89.566406 148.542969 90.683594 C 151.929688 93.886719 155.832031 96.128906 160.433594 97.058594 C 163.285156 97.628906 166.210938 97.699219 169.085938 97.269531 C 172.394531 96.839844 175.601562 95.828125 178.558594 94.285156 C 183.421875 91.703125 186.894531 87.8125 189.230469 82.878906 C 190.476562 80.351562 191.34375 77.65625 191.796875 74.875 C 191.976562 73.582031 192.058594 72.273438 192.039062 70.96875 C 192.039062 70.117188 192.101562 70.03125 192.90625 69.761719 L 203.023438 66.382812 C 203.117188 66.339844 203.214844 66.304688 203.3125 66.277344 C 203.453125 66.253906 203.601562 66.132812 203.746094 66.277344 C 203.890625 66.425781 203.832031 66.597656 203.765625 66.769531 C 201.109375 73.609375 198.457031 80.449219 195.808594 87.296875 C 193.886719 92.253906 191.960938 97.21875 190.074219 102.183594 C 189.703125 103.144531 189.113281 103.5625 188.097656 103.652344 C 184.855469 103.9375 181.621094 104.316406 178.382812 104.652344 C 175.195312 104.972656 172.011719 105.292969 168.824219 105.636719 C 165.179688 106.019531 161.539062 106.417969 157.894531 106.804688 C 154.734375 107.125 151.574219 107.445312 148.414062 107.78125 C 144.769531 108.164062 141.125 108.550781 137.480469 108.941406 L 132.742188 109.445312 C 132.613281 109.457031 132.484375 109.464844 132.355469 109.46875 C 131.75 109.46875 131.578125 109.316406 131.546875 108.707031 C 131.527344 108.273438 131.546875 107.835938 131.546875 107.402344 C 131.503906 106.339844 131.226562 106.0625 130.171875 106.1875 C 128.339844 106.40625 126.511719 106.65625 124.6875 106.910156 C 121.945312 107.289062 119.207031 107.675781 116.46875 108.074219 L 107.371094 109.34375 C 107.195312 109.378906 107.015625 109.402344 106.835938 109.414062 C 106.316406 109.414062 106.128906 109.277344 106.117188 108.75 C 106.09375 107.980469 106.117188 107.214844 106.117188 106.445312 C 106.117188 104.140625 106.136719 101.835938 106.089844 99.53125 C 106.058594 98.554688 106.371094 97.597656 106.96875 96.824219 C 112.980469 88.785156 118.984375 80.742188 124.984375 72.691406 C 125.304688 72.28125 125.597656 71.871094 125.902344 71.457031 C 126.195312 71.074219 126.417969 70.640625 126.566406 70.179688 C 127.132812 68.300781 125.761719 66.6875 123.804688 66.917969 C 123.015625 67.007812 122.230469 67.125 121.445312 67.238281 C 117.96875 67.730469 114.496094 68.230469 111.023438 68.726562 C 108.140625 69.148438 105.253906 69.605469 102.371094 69.976562 C 101.375 70.105469 101.058594 70.519531 101.058594 71.613281 C 101.058594 74.890625 101.058594 78.167969 101.058594 81.445312 C 101.058594 88.644531 101.058594 95.839844 101.058594 103.03125 C 101.058594 104.953125 101.058594 106.875 101.058594 108.792969 C 101.058594 109 101.058594 109.203125 101.058594 109.410156 C 101.019531 110.226562 100.785156 110.511719 99.980469 110.636719 C 99.175781 110.765625 98.40625 110.851562 97.621094 110.957031 C 94.578125 111.402344 91.53125 111.84375 88.5 112.304688 C 87.246094 112.496094 87.21875 112.476562 87.21875 111.207031 C 87.21875 101.78125 87.21875 92.359375 87.21875 82.933594 C 87.21875 79.988281 87.21875 77.046875 87.21875 74.101562 C 87.21875 73.921875 87.21875 73.742188 87.21875 73.5625 C 87.199219 72.601562 87.019531 72.414062 86.074219 72.53125 C 84.792969 72.691406 83.539062 72.894531 82.273438 73.078125 L 72.980469 74.398438 C 72.015625 74.535156 71.054688 74.671875 70.09375 74.800781 C 69.773438 74.84375 69.429688 74.875 69.101562 74.898438 C 68.679688 74.941406 68.273438 74.738281 68.058594 74.378906 L 67.84375 74.058594 C 64.519531 68.953125 61.191406 63.847656 57.867188 58.742188 C 57.660156 58.464844 57.507812 58.152344 57.417969 57.816406 Z M 57.417969 57.816406 "/>
<path style=" stroke:none;fill-rule:nonzero;fill:rgb(99.215686%,99.215686%,99.607843%);fill-opacity:1;" d="M 147.671875 81.355469 C 150.234375 80.25 152.746094 79.164062 155.257812 78.085938 C 163.179688 74.6875 171.105469 71.292969 179.03125 67.90625 C 179.789062 67.636719 180.351562 66.996094 180.519531 66.210938 C 180.839844 64.898438 181.480469 63.671875 181.753906 62.34375 C 181.785156 62.195312 181.808594 62.042969 181.839844 61.882812 C 181.558594 61.738281 181.21875 61.765625 180.964844 61.949219 C 175.710938 64.484375 170.363281 66.816406 165.066406 69.246094 C 159.253906 71.914062 153.421875 74.546875 147.605469 77.195312 C 147.277344 77.339844 146.964844 77.511719 146.667969 77.714844 C 146.277344 77.988281 146.125 77.925781 145.894531 77.488281 C 145.472656 76.6875 145.625 76.207031 146.5 75.742188 C 148.949219 74.40625 151.40625 73.089844 153.871094 71.757812 C 159.625 68.625 165.382812 65.496094 171.140625 62.367188 C 171.96875 61.953125 172.59375 61.21875 172.875 60.335938 C 173.367188 58.855469 173.949219 57.410156 174.492188 55.945312 C 174.613281 55.742188 174.65625 55.5 174.609375 55.265625 C 172.609375 56.335938 170.695312 57.484375 168.753906 58.585938 C 166.816406 59.6875 164.796875 60.847656 162.820312 61.976562 L 156.957031 65.335938 L 151.023438 68.726562 L 145.136719 72.097656 C 144.753906 69.777344 144.90625 67.40625 145.589844 65.160156 C 147.914062 57.109375 153.042969 51.769531 161.261719 49.792969 C 167.710938 48.234375 173.625 49.761719 178.824219 53.820312 C 183.367188 57.367188 185.980469 62.09375 186.8125 67.789062 C 188.039062 76.148438 184.183594 84.695312 177.148438 89.195312 C 170.179688 93.652344 161.175781 93.578125 154.441406 89.003906 C 153.484375 88.359375 152.597656 87.617188 151.789062 86.796875 C 151.566406 86.636719 151.402344 86.414062 151.320312 86.15625 C 152.714844 85.675781 154.105469 85.195312 155.488281 84.714844 C 161.664062 82.617188 167.839844 80.523438 174.015625 78.4375 C 174.847656 78.21875 175.496094 77.574219 175.71875 76.75 C 176.070312 75.605469 176.539062 74.492188 176.957031 73.367188 C 177.042969 73.136719 177.117188 72.898438 177.214844 72.609375 C 176.941406 72.605469 176.671875 72.671875 176.433594 72.804688 L 149.808594 82.429688 C 148.363281 82.9375 148.242188 82.878906 147.671875 81.355469 Z M 147.671875 81.355469 "/>
</g>
</svg>
